<svg xmlns="http://www.w3.org/2000/svg" version="1.1" xmlns:xlink="http://www.w3.org/1999/xlink" width="1000" height="1000"><style>
    #light-icon {
      display: inline;
    }
    #dark-icon {
      display: none;
    }

    @media (prefers-color-scheme: dark) {
      #light-icon {
        display: none;
      }
      #dark-icon {
        display: inline;
      }
    }
  </style><g id="light-icon"><svg xmlns="http://www.w3.org/2000/svg" version="1.1" xmlns:xlink="http://www.w3.org/1999/xlink" width="1000" height="1000"><g clip-path="url(#SvgjsClipPath1079)"><rect width="1000" height="1000" fill="#faf8f4"></rect><g transform="matrix(2.654632333421821,0,0,2.654632333421821,0,0.013273161667029854)"><svg xmlns="http://www.w3.org/2000/svg" viewBox="0 0 376.7 376.69" width="376.7" height="376.69"><g id="Layer_2" data-name="Layer 2"><g id="Layer_1-2" data-name="Layer 1"><path d="M63.92,171.59l20.16,20.17,20.18,20.16,20.17,20.17,20.16,20.18,3.41,3.41,3.42-3.41,20.17-20.18,20.17-20.17,20.16-20.16,20.18-20.17,20.17-20.18,3.41-3.41-3.41-3.41-20.18-20.16-20.17-20.18L191.76,84.08l-3.41-3.41-3.41,3.41-20.18,20.17-20.17,20.18-20.16,20.16L121,148l3.41,3.41,20.16,20.18,16.76,16.76L148,201.68l-16.75-16.75-20.17-20.17L94.33,148l16.75-16.75,20.17-20.17,20.18-20.17,20.16-20.17,20.17-20.17L211.92,30.4,215.33,27l-3.41-3.42L191.76,3.41,188.35,0l-3.41,3.41L164.76,23.57,144.59,43.75,124.43,63.92,104.26,84.08,84.08,104.25,63.92,124.43,43.75,144.59,40.34,148l3.41,3.41Zm124.43-36.93L201.69,148l-13.34,13.35L175,148Z" style="fill:#91272d"></path><polygon points="265.61 164.76 245.44 184.94 225.27 205.09 205.1 225.27 184.94 245.44 164.76 265.6 161.35 269.01 164.76 272.43 184.94 292.6 188.35 296.01 191.76 292.6 211.92 272.43 232.09 252.27 252.27 232.09 272.43 211.92 292.6 191.76 312.77 171.59 332.94 151.41 336.35 148 332.94 144.59 312.77 124.43 309.36 121.02 305.95 124.42 285.78 144.59 265.61 164.76" style="fill:#91272d"></polygon><polygon points="373.28 184.93 353.11 164.76 349.7 161.35 346.29 164.76 326.11 184.93 305.95 205.1 188.35 322.7 171.59 305.95 151.42 285.78 131.25 265.6 111.08 245.44 90.91 225.27 70.75 205.1 67.33 201.68 63.92 205.1 43.75 225.27 40.34 228.68 43.75 232.09 184.94 373.28 188.35 376.69 191.76 373.28 211.92 353.11 232.1 332.94 252.27 312.77 272.43 292.6 292.6 272.43 312.77 252.27 332.94 232.09 353.11 211.92 373.28 191.76 376.7 188.35 373.28 184.93" style="fill:#91272d"></polygon><polygon points="53.99 188.34 50.58 184.93 30.41 164.76 26.99 161.35 23.58 164.76 3.41 184.93 0 188.34 3.41 191.76 23.58 211.93 26.99 215.34 30.41 211.93 50.58 191.76 53.99 188.34" style="fill:#91272d"></polygon><polygon points="242.3 107.93 245.71 111.35 265.88 131.51 269.29 134.93 272.7 131.51 292.87 111.35 296.28 107.93 292.87 104.52 272.7 84.35 269.29 80.94 265.88 84.35 245.71 104.52 242.3 107.93" style="fill:#91272d"></polygon><polygon points="201.96 67.6 205.37 71.01 225.54 91.18 228.95 94.59 232.36 91.18 252.53 71.01 255.94 67.6 252.53 64.18 232.36 44.01 228.95 40.6 225.54 44.01 205.37 64.18 201.96 67.6" style="fill:#91272d"></polygon></g></g></svg></g></g><defs><clipPath id="SvgjsClipPath1079"><rect width="1000" height="1000" x="0" y="0" rx="0" ry="0"></rect></clipPath></defs></svg></g><g id="dark-icon"><svg xmlns="http://www.w3.org/2000/svg" version="1.1" xmlns:xlink="http://www.w3.org/1999/xlink" width="1000" height="1000"><g><g transform="matrix(2.654632333421821,0,0,2.654632333421821,0,0.013273161667029854)" style="filter: contrast(0.9090909090909091) brightness(1.5)"><svg xmlns="http://www.w3.org/2000/svg" viewBox="0 0 376.7 376.69" width="376.7" height="376.69"><g id="Layer_2" data-name="Layer 2"><g id="Layer_1-2" data-name="Layer 1"><path d="M63.92,171.59l20.16,20.17,20.18,20.16,20.17,20.17,20.16,20.18,3.41,3.41,3.42-3.41,20.17-20.18,20.17-20.17,20.16-20.16,20.18-20.17,20.17-20.18,3.41-3.41-3.41-3.41-20.18-20.16-20.17-20.18L191.76,84.08l-3.41-3.41-3.41,3.41-20.18,20.17-20.17,20.18-20.16,20.16L121,148l3.41,3.41,20.16,20.18,16.76,16.76L148,201.68l-16.75-16.75-20.17-20.17L94.33,148l16.75-16.75,20.17-20.17,20.18-20.17,20.16-20.17,20.17-20.17L211.92,30.4,215.33,27l-3.41-3.42L191.76,3.41,188.35,0l-3.41,3.41L164.76,23.57,144.59,43.75,124.43,63.92,104.26,84.08,84.08,104.25,63.92,124.43,43.75,144.59,40.34,148l3.41,3.41Zm124.43-36.93L201.69,148l-13.34,13.35L175,148Z" style="fill:#91272d"></path><polygon points="265.61 164.76 245.44 184.94 225.27 205.09 205.1 225.27 184.94 245.44 164.76 265.6 161.35 269.01 164.76 272.43 184.94 292.6 188.35 296.01 191.76 292.6 211.92 272.43 232.09 252.27 252.27 232.09 272.43 211.92 292.6 191.76 312.77 171.59 332.94 151.41 336.35 148 332.94 144.59 312.77 124.43 309.36 121.02 305.95 124.42 285.78 144.59 265.61 164.76" style="fill:#91272d"></polygon><polygon points="373.28 184.93 353.11 164.76 349.7 161.35 346.29 164.76 326.11 184.93 305.95 205.1 188.35 322.7 171.59 305.95 151.42 285.78 131.25 265.6 111.08 245.44 90.91 225.27 70.75 205.1 67.33 201.68 63.92 205.1 43.75 225.27 40.34 228.68 43.75 232.09 184.94 373.28 188.35 376.69 191.76 373.28 211.92 353.11 232.1 332.94 252.27 312.77 272.43 292.6 292.6 272.43 312.77 252.27 332.94 232.09 353.11 211.92 373.28 191.76 376.7 188.35 373.28 184.93" style="fill:#91272d"></polygon><polygon points="53.99 188.34 50.58 184.93 30.41 164.76 26.99 161.35 23.58 164.76 3.41 184.93 0 188.34 3.41 191.76 23.58 211.93 26.99 215.34 30.41 211.93 50.58 191.76 53.99 188.34" style="fill:#91272d"></polygon><polygon points="242.3 107.93 245.71 111.35 265.88 131.51 269.29 134.93 272.7 131.51 292.87 111.35 296.28 107.93 292.87 104.52 272.7 84.35 269.29 80.94 265.88 84.35 245.71 104.52 242.3 107.93" style="fill:#91272d"></polygon><polygon points="201.96 67.6 205.37 71.01 225.54 91.18 228.95 94.59 232.36 91.18 252.53 71.01 255.94 67.6 252.53 64.18 232.36 44.01 228.95 40.6 225.54 44.01 205.37 64.18 201.96 67.6" style="fill:#91272d"></polygon></g></g></svg></g></g></svg></g></svg>