<svg xmlns="http://www.w3.org/2000/svg" viewBox="0 0 785.82 157.41"><g id="Layer_2" data-name="Layer 2"><g id="Layer_1-2" data-name="Layer 1"><path d="M26.68,71.62,35.09,80l8.42,8.42,8.42,8.42,8.42,8.42,1.42,1.42,1.43-1.42,8.42-8.42L80,88.45,88.45,80l8.42-8.41,8.42-8.42,1.42-1.43-1.42-1.42-8.42-8.42-8.42-8.42L80,35.09l-1.43-1.42-1.42,1.42-8.42,8.42-8.42,8.42-8.42,8.42-1.42,1.42,1.42,1.43,8.42,8.41,7,7-5.57,5.57-7-7-8.42-8.42-7-7,7-7,8.42-8.42,8.42-8.42,8.42-8.41L80,21.11l8.41-8.42,1.42-1.43L88.45,9.84,80,1.42,78.61,0,77.19,1.42,68.77,9.84l-8.42,8.42-8.42,8.42-8.42,8.41-8.42,8.42-8.41,8.42-8.42,8.42-1.43,1.42,1.43,1.43ZM78.61,56.2l5.57,5.57-5.57,5.57L73,61.77Z" style="fill:#91272d"/><polygon points="110.86 68.77 102.44 77.19 94.02 85.6 85.6 94.02 77.19 102.44 68.77 110.86 67.34 112.28 68.77 113.7 77.19 122.12 78.61 123.55 80.04 122.12 88.45 113.7 96.87 105.29 105.29 96.87 113.7 88.45 122.12 80.03 130.54 71.61 138.96 63.2 140.38 61.77 138.96 60.35 130.54 51.93 129.12 50.51 127.69 51.93 119.28 60.35 110.86 68.77" style="fill:#91272d"/><polygon points="155.8 77.19 147.38 68.77 145.95 67.34 144.53 68.77 136.11 77.19 127.69 85.6 78.61 134.69 71.62 127.69 63.2 119.28 54.78 110.86 46.36 102.44 37.94 94.02 29.53 85.6 28.1 84.18 26.68 85.6 18.26 94.02 16.84 95.44 18.26 96.87 77.19 155.8 78.61 157.22 80.04 155.8 88.45 147.38 96.87 138.96 105.29 130.54 113.7 122.12 122.12 113.7 130.54 105.29 138.96 96.87 147.38 88.45 155.8 80.03 157.22 78.61 155.8 77.19" style="fill:#91272d"/><polygon points="22.53 78.61 21.11 77.19 12.69 68.77 11.27 67.34 9.84 68.77 1.42 77.19 0 78.61 1.42 80.03 9.84 88.45 11.27 89.88 12.69 88.45 21.11 80.03 22.53 78.61" style="fill:#91272d"/><polygon points="101.13 45.05 102.55 46.47 110.97 54.89 112.39 56.31 113.82 54.89 122.24 46.47 123.66 45.05 122.24 43.62 113.82 35.21 112.39 33.78 110.97 35.21 102.55 43.62 101.13 45.05" style="fill:#91272d"/><polygon points="84.29 28.21 85.72 29.64 94.13 38.05 95.56 39.48 96.98 38.05 105.4 29.64 106.82 28.21 105.4 26.79 96.98 18.37 95.56 16.95 94.13 18.37 85.72 26.79 84.29 28.21" style="fill:#91272d"/><path d="M200.17,124.06v-2.6h14.67V26.62H200.17V24h48.16v2.6h-16v94.84h16v2.6Z" style="fill:#393937"/><path d="M297.61,157.41v-2.6h8.94V105.25Q304.42,114.66,299,120a18.59,18.59,0,0,1-13.57,5.34,25.7,25.7,0,0,1-13.41-3.8,28.65,28.65,0,0,1-10.3-10.94q-4-7.14-4-17.14t4-17.18a28.75,28.75,0,0,1,10.3-11,25.47,25.47,0,0,1,13.41-3.84A18.48,18.48,0,0,1,299,66.83q5.43,5.42,7.57,14.81V62.7h24.94v2.6h-8.87v89.51h8.87v2.6Zm-8.47-36.08a13.11,13.11,0,0,0,8.34-3.24,23,23,0,0,0,6.54-9.44,40.23,40.23,0,0,0,2.53-15.2A40.82,40.82,0,0,0,304,78.17a23,23,0,0,0-6.54-9.5,13.11,13.11,0,0,0-8.34-3.24,9.57,9.57,0,0,0-7.27,3.14q-2.92,3.14-4.43,9.37a67.67,67.67,0,0,0-1.5,15.51,67.18,67.18,0,0,0,1.5,15.47c1,4.13,2.48,7.24,4.43,9.3A9.61,9.61,0,0,0,289.14,121.33Z" style="fill:#393937"/><path d="M385.32,125.39a18.64,18.64,0,0,1-13.58-5.4q-5.49-5.4-7.63-14.74v18.81H339.16v-2.6h8.94V26.62h-8.94V24h24.95V81.57q2.13-9.41,7.63-14.74a18.79,18.79,0,0,1,13.58-5.33,25.66,25.66,0,0,1,13.4,3.8A28.67,28.67,0,0,1,409,76.24a34.83,34.83,0,0,1,4,17.14,35,35,0,0,1-4,17.17,28.88,28.88,0,0,1-10.31,11A25.42,25.42,0,0,1,385.32,125.39Zm-3.74-4a9.56,9.56,0,0,0,7.27-3.13q2.94-3.14,4.44-9.37a67.67,67.67,0,0,0,1.5-15.51,67.12,67.12,0,0,0-1.5-15.47q-1.5-6.21-4.44-9.31a9.6,9.6,0,0,0-7.27-3.1,13.3,13.3,0,0,0-8.4,3.2,22.73,22.73,0,0,0-6.54,9.44,40.56,40.56,0,0,0-2.53,15.24,40.8,40.8,0,0,0,2.53,15.27,23,23,0,0,0,6.54,9.51A13.23,13.23,0,0,0,381.58,121.39Z" style="fill:#393937"/><path d="M443.41,125.39q-8.67,0-13.84-4.43t-5.17-12a16,16,0,0,1,7.7-14q7.71-5.1,21.91-5.1h15.54v2.27h-13a14.41,14.41,0,0,0-8.61,2.36,14,14,0,0,0-4.77,5.91,17.79,17.79,0,0,0-1.5,7,19.53,19.53,0,0,0,.9,6,10.11,10.11,0,0,0,2.84,4.54,7,7,0,0,0,4.87,1.73,10.44,10.44,0,0,0,6.2-2.17,15.53,15.53,0,0,0,4.94-6.57,27.74,27.74,0,0,0,1.93-11.13H465a33,33,0,0,1-2.57,13.5,19.56,19.56,0,0,1-19,12.17Zm33.55,0a19.68,19.68,0,0,1-6.91-1.16,10.21,10.21,0,0,1-4.9-3.77,11.73,11.73,0,0,1-1.8-6.8V83.44a47.32,47.32,0,0,0-.87-9.2A14.27,14.27,0,0,0,459,67c-1.76-1.86-4.41-2.8-8-2.8a32.34,32.34,0,0,0-6.17.64,24.22,24.22,0,0,0-6.07,2,14.14,14.14,0,0,0-4.63,3.54,7.78,7.78,0,0,0-1.8,5.2H429.2a7.68,7.68,0,0,1,2.77-6.2,9.57,9.57,0,0,1,6.37-2.34A11,11,0,0,1,445,69.24a7.12,7.12,0,0,1,2.93,6.13q0,4.47-3,6.64a11.06,11.06,0,0,1-6.6,2.17,9.92,9.92,0,0,1-6.64-2.24,7.83,7.83,0,0,1-2.63-6.3,9.41,9.41,0,0,1,2.13-6.1,16.4,16.4,0,0,1,5.71-4.37,33.15,33.15,0,0,1,8-2.64,44.42,44.42,0,0,1,8.93-.9q9.81,0,15.31,3a17.22,17.22,0,0,1,7.77,8,25.86,25.86,0,0,1,2.27,10.84v32.35a7.65,7.65,0,0,0,.83,3.73c.56,1,1.66,1.54,3.3,1.54a7.92,7.92,0,0,0,3.9-1.34,9.17,9.17,0,0,0,3.51-3.8l1.4,1.94a13.22,13.22,0,0,1-5.77,5.47A20.14,20.14,0,0,1,477,125.39Z" style="fill:#393937"/><path d="M524.58,24v97.44h11.53v2.6H497v-2.6h11.61V26.62H497V24Z" style="fill:#393937"/><path d="M597,22.08l34.41,99.38h10.34v2.6h-43v-2.6h12.47L586,43.42l-27.28,78h14.14v2.6H543.45v-2.6h12.27l35-99.38ZM567.86,92.91v-2.6h41.88v2.6Z" style="fill:#393937"/><path d="M692.05,24q12.47,0,20.37,3.56a25.09,25.09,0,0,1,11.71,10,29.21,29.21,0,0,1,3.8,15.11,28.47,28.47,0,0,1-3.8,15,24.39,24.39,0,0,1-11.71,9.7q-7.9,3.41-20.37,3.4H678.24v40.69h11.94v2.6H648.69v-2.6h12V26.62h-12V24ZM678.24,78.17h12.2a13.84,13.84,0,0,0,7.91-2.26,18.81,18.81,0,0,0,5.6-6,30.5,30.5,0,0,0,3.37-8.23,37,37,0,0,0,1.13-9,38.19,38.19,0,0,0-1.13-9.08A31.84,31.84,0,0,0,704,35.19a19.43,19.43,0,0,0-5.6-6.21,13.46,13.46,0,0,0-7.91-2.36h-12.2Z" style="fill:#393937"/><path d="M737.66,124.06v-2.6h14.68V26.62H737.66V24h48.16v2.6h-16v94.84h16v2.6Z" style="fill:#393937"/></g></g></svg>